<svg xmlns="http://www.w3.org/2000/svg" width="512" height="512" viewBox="0 0 512 512" version="1.1">
	<path d="M 38.348 1.420 C 20.199 5.822, 4.904 21.584, 1.105 39.799 C -0.460 47.305, -0.460 464.695, 1.105 472.201 C 5.013 490.941, 21.059 506.987, 39.799 510.895 C 47.305 512.460, 464.695 512.460, 472.201 510.895 C 490.488 507.081, 507.902 489.970, 510.588 473.176 C 510.959 470.855, 511.654 468.714, 512.131 468.419 C 512.618 468.118, 513 374.331, 513 254.882 C 513 133.404, 512.624 42.114, 512.125 42.423 C 511.644 42.720, 510.949 41.083, 510.581 38.784 C 507.902 22.030, 490.467 4.914, 472.201 1.105 C 464.097 -0.585, 45.360 -0.281, 38.348 1.420 M 0.491 256 C 0.491 373.425, 0.607 421.462, 0.750 362.750 C 0.892 304.037, 0.892 207.962, 0.750 149.250 C 0.607 90.537, 0.491 138.575, 0.491 256 M 109.856 53.511 C 86.910 58.082, 66.299 75.117, 57.508 96.779 C 48.690 118.509, 50.822 143.620, 63.164 163.395 C 64.963 166.278, 85.304 187.542, 109.899 212.250 L 153.448 256 109.899 299.750 C 85.304 324.458, 64.963 345.722, 63.164 348.605 C 42.152 382.271, 51.817 426.287, 85.065 448.338 C 107.915 463.494, 139.588 463.695, 163.395 448.836 C 166.278 447.037, 187.542 426.696, 212.250 402.101 L 256 358.552 299.750 402.101 C 324.458 426.696, 345.722 447.037, 348.605 448.836 C 381.403 469.307, 424.223 460.747, 446.735 429.218 C 463.421 405.850, 464.269 373.331, 448.836 348.605 C 447.037 345.722, 426.696 324.458, 402.101 299.750 L 358.552 256 402.101 212.250 C 426.696 187.542, 447.037 166.278, 448.836 163.395 C 469.831 129.757, 460.156 85.695, 426.935 63.662 C 404.085 48.506, 372.412 48.305, 348.605 63.164 C 345.722 64.963, 324.458 85.304, 299.750 109.899 L 256 153.448 212.250 109.899 C 187.542 85.304, 166.278 64.963, 163.395 63.164 C 147.819 53.442, 128.075 49.882, 109.856 53.511 M 110 58.551 C 106.425 59.317, 99.230 62.054, 94.012 64.633 C 80.892 71.119, 71.079 80.965, 64.547 94.198 C 54.446 114.663, 54.459 134.223, 64.587 155 L 69.218 164.500 208.359 303.641 L 347.500 442.782 357 447.413 C 377.847 457.575, 397.329 457.559, 417.988 447.360 C 431.106 440.885, 440.918 431.042, 447.453 417.802 C 457.554 397.337, 457.541 377.777, 447.413 357 L 442.782 347.500 303.641 208.359 L 164.500 69.218 155 64.587 C 140.017 57.283, 125.200 55.296, 110 58.551 M 373 58.551 C 369.425 59.317, 362.225 62.042, 357 64.608 L 347.500 69.274 303.500 113.116 L 259.500 156.958 307.271 204.729 L 355.042 252.500 398.884 208.500 L 442.726 164.500 447.385 155 C 457.577 134.217, 457.569 114.693, 447.360 94.012 C 434.011 66.970, 402.920 52.143, 373 58.551 M 142.200 124.200 C 141.540 124.860, 141 126.570, 141 128 C 141 133.272, 146.691 134.928, 149.592 130.500 C 151.109 128.184, 151.109 127.816, 149.592 125.500 C 147.837 122.821, 144.216 122.184, 142.200 124.200 M 362.408 125.500 C 360.891 127.816, 360.891 128.184, 362.408 130.500 C 365.309 134.928, 371 133.272, 371 128 C 371 122.728, 365.309 121.072, 362.408 125.500 M 124.200 142.200 C 122.184 144.216, 122.821 147.837, 125.500 149.592 C 127.816 151.109, 128.184 151.109, 130.500 149.592 C 134.928 146.691, 133.272 141, 128 141 C 126.570 141, 124.860 141.540, 124.200 142.200 M 380.200 142.200 C 378.184 144.216, 378.821 147.837, 381.500 149.592 C 383.816 151.109, 384.184 151.109, 386.500 149.592 C 390.928 146.691, 389.272 141, 384 141 C 382.570 141, 380.860 141.540, 380.200 142.200 M 169.200 151.200 C 167.299 153.101, 167.742 157.792, 169.934 158.965 C 172.988 160.599, 174.826 160.194, 176.592 157.500 C 178.109 155.184, 178.109 154.816, 176.592 152.500 C 174.837 149.821, 171.216 149.184, 169.200 151.200 M 335.452 152.433 C 334.236 154.289, 334.112 155.340, 334.928 156.865 C 337.362 161.414, 344 160.170, 344 155.165 C 344 149.791, 338.364 147.989, 335.452 152.433 M 151.200 169.200 C 147.739 172.661, 152.569 179.371, 156.865 177.072 C 161.414 174.638, 160.170 168, 155.165 168 C 153.644 168, 151.860 168.540, 151.200 169.200 M 353.035 169.934 C 351.401 172.988, 351.806 174.826, 354.500 176.592 C 356.816 178.109, 357.184 178.109, 359.500 176.592 C 362.179 174.837, 362.816 171.216, 360.800 169.200 C 358.899 167.299, 354.208 167.742, 353.035 169.934 M 112.842 303.750 L 69.276 347.500 64.616 357 C 54.423 377.780, 54.430 397.306, 64.640 417.988 C 71.115 431.106, 80.958 440.918, 94.198 447.453 C 114.684 457.564, 134.287 457.543, 155 447.385 L 164.500 442.726 208.500 398.885 L 252.500 355.044 205.004 307.522 C 178.881 281.385, 157.260 260, 156.958 260 C 156.655 260, 136.803 279.688, 112.842 303.750 M 145.655 341.829 C 143.504 344.206, 143.560 346.291, 145.829 348.345 C 149.544 351.707, 154 349.793, 154 344.835 C 154 340.344, 148.720 338.442, 145.655 341.829 M 359.605 341.299 C 357.448 342.877, 357.751 347.830, 360.095 349.296 C 364.810 352.246, 370.177 346.063, 366.464 341.960 C 364.405 339.685, 362.115 339.464, 359.605 341.299 M 163.245 359.155 C 160.410 361.990, 162.905 368, 166.916 368 C 167.892 368, 169.517 367.086, 170.527 365.970 C 173.246 362.966, 171.532 358.606, 167.477 358.205 C 165.834 358.043, 163.930 358.470, 163.245 359.155 M 341.035 359.934 C 339.539 362.730, 339.754 364.467, 341.829 366.345 C 344.206 368.496, 346.291 368.440, 348.345 366.171 C 350.289 364.023, 350.493 360.893, 348.800 359.200 C 346.899 357.299, 342.208 357.742, 341.035 359.934 M 118.408 369.500 C 116.891 371.816, 116.891 372.184, 118.408 374.500 C 121.309 378.928, 127 377.272, 127 372 C 127 366.728, 121.309 365.072, 118.408 369.500 M 386.200 368.200 C 384.299 370.101, 384.742 374.792, 386.934 375.965 C 389.988 377.599, 391.826 377.194, 393.592 374.500 C 395.109 372.184, 395.109 371.816, 393.592 369.500 C 391.837 366.821, 388.216 366.184, 386.200 368.200 M 136.035 386.934 C 134.401 389.988, 134.806 391.826, 137.500 393.592 C 139.816 395.109, 140.184 395.109, 142.500 393.592 C 145.179 391.837, 145.816 388.216, 143.800 386.200 C 141.899 384.299, 137.208 384.742, 136.035 386.934 M 368.200 386.200 C 366.184 388.216, 366.821 391.837, 369.500 393.592 C 371.816 395.109, 372.184 395.109, 374.500 393.592 C 378.928 390.691, 377.272 385, 372 385 C 370.570 385, 368.860 385.540, 368.200 386.200" stroke="none" fill="black" fill-rule="evenodd"/>
</svg>